<?xml version="1.0" encoding="UTF-8"?>
<!DOCTYPE svg PUBLIC "-//W3C//DTD SVG 1.1//EN" "http://www.w3.org/Graphics/SVG/1.1/DTD/svg11.dtd">
<svg version="1.2" width="220mm" height="141mm" viewBox="0 0 22000 14100" preserveAspectRatio="xMidYMid" fill-rule="evenodd" clip-path="url(#presentation_clip_path)" stroke-width="28.222" stroke-linejoin="round" xmlns="http://www.w3.org/2000/svg" xmlns:ooo="http://xml.openoffice.org/svg/export" xmlns:xlink="http://www.w3.org/1999/xlink" xml:space="preserve">
 <defs class="ClipPathGroup">
  <clipPath id="presentation_clip_path" clipPathUnits="userSpaceOnUse">
   <rect x="0" y="0" width="22000" height="14100"/>
  </clipPath>
 </defs>
 <defs class="TextShapeIndex">
  <g ooo:slide="id1" ooo:id-list="id3 id4 id5 id6 id7 id8 id9 id10 id11 id12 id13 id14 id15 id16"/>
 </defs>
 <defs class="EmbeddedBulletChars">
  <g id="bullet-char-template(57356)" transform="scale(0.00048828125,-0.00048828125)">
   <path d="M 580,1141 L 1163,571 580,0 -4,571 580,1141 Z"/>
  </g>
  <g id="bullet-char-template(57354)" transform="scale(0.00048828125,-0.00048828125)">
   <path d="M 8,1128 L 1137,1128 1137,0 8,0 8,1128 Z"/>
  </g>
  <g id="bullet-char-template(10146)" transform="scale(0.00048828125,-0.00048828125)">
   <path d="M 174,0 L 602,739 174,1481 1456,739 174,0 Z M 1358,739 L 309,1346 659,739 1358,739 Z"/>
  </g>
  <g id="bullet-char-template(10132)" transform="scale(0.00048828125,-0.00048828125)">
   <path d="M 2015,739 L 1276,0 717,0 1260,543 174,543 174,936 1260,936 717,1481 1274,1481 2015,739 Z"/>
  </g>
  <g id="bullet-char-template(10007)" transform="scale(0.00048828125,-0.00048828125)">
   <path d="M 0,-2 C -7,14 -16,27 -25,37 L 356,567 C 262,823 215,952 215,954 215,979 228,992 255,992 264,992 276,990 289,987 310,991 331,999 354,1012 L 381,999 492,748 772,1049 836,1024 860,1049 C 881,1039 901,1025 922,1006 886,937 835,863 770,784 769,783 710,716 594,584 L 774,223 C 774,196 753,168 711,139 L 727,119 C 717,90 699,76 672,76 641,76 570,178 457,381 L 164,-76 C 142,-110 111,-127 72,-127 30,-127 9,-110 8,-76 1,-67 -2,-52 -2,-32 -2,-23 -1,-13 0,-2 Z"/>
  </g>
  <g id="bullet-char-template(10004)" transform="scale(0.00048828125,-0.00048828125)">
   <path d="M 285,-33 C 182,-33 111,30 74,156 52,228 41,333 41,471 41,549 55,616 82,672 116,743 169,778 240,778 293,778 328,747 346,684 L 369,508 C 377,444 397,411 428,410 L 1163,1116 C 1174,1127 1196,1133 1229,1133 1271,1133 1292,1118 1292,1087 L 1292,965 C 1292,929 1282,901 1262,881 L 442,47 C 390,-6 338,-33 285,-33 Z"/>
  </g>
  <g id="bullet-char-template(9679)" transform="scale(0.00048828125,-0.00048828125)">
   <path d="M 813,0 C 632,0 489,54 383,161 276,268 223,411 223,592 223,773 276,916 383,1023 489,1130 632,1184 813,1184 992,1184 1136,1130 1245,1023 1353,916 1407,772 1407,592 1407,412 1353,268 1245,161 1136,54 992,0 813,0 Z"/>
  </g>
  <g id="bullet-char-template(8226)" transform="scale(0.00048828125,-0.00048828125)">
   <path d="M 346,457 C 273,457 209,483 155,535 101,586 74,649 74,723 74,796 101,859 155,911 209,963 273,989 346,989 419,989 480,963 531,910 582,859 608,796 608,723 608,648 583,586 532,535 482,483 420,457 346,457 Z"/>
  </g>
  <g id="bullet-char-template(8211)" transform="scale(0.00048828125,-0.00048828125)">
   <path d="M -4,459 L 1135,459 1135,606 -4,606 -4,459 Z"/>
  </g>
 </defs>
 <defs class="TextEmbeddedBitmaps"/>
 <g>
  <g id="id2" class="Master_Slide">
   <g id="bg-id2" class="Background"/>
   <g id="bo-id2" class="BackgroundObjects"/>
  </g>
 </g>
 <g class="SlideGroup">
  <g>
   <g id="id1" class="Slide" clip-path="url(#presentation_clip_path)">
    <g class="Page">
     <g class="com.sun.star.drawing.LineShape">
      <g id="id3">
       <path fill="none" stroke="rgb(0,0,0)" d="M 6800,10900 L 5500,10900"/>
      </g>
     </g>
     <g class="com.sun.star.drawing.LineShape">
      <g id="id4">
       <path fill="none" stroke="rgb(0,0,0)" d="M 6800,11600 L 400,11600"/>
      </g>
     </g>
     <g class="com.sun.star.drawing.TableShape">
      <g>
       <text class="TextShape"><tspan class="TextParagraph" font-family="Arial, sans-serif" font-size="353px" font-weight="400"><tspan class="TextPosition" x="1491" y="1762"><tspan fill="rgb(0,0,0)" stroke="none">memid</tspan></tspan></tspan></text>
       <text class="TextShape"><tspan class="TextParagraph" font-family="Arial, sans-serif" font-size="353px" font-weight="400"><tspan class="TextPosition" x="4944" y="1762"><tspan fill="rgb(0,0,0)" stroke="none">integer</tspan></tspan></tspan></text>
       <text class="TextShape"><tspan class="TextParagraph" font-family="Arial, sans-serif" font-size="353px" font-weight="400"><tspan class="TextPosition" x="1491" y="2493"><tspan fill="rgb(0,0,0)" stroke="none">surname</tspan></tspan></tspan></text>
       <text class="TextShape"><tspan class="TextParagraph" font-family="Arial, sans-serif" font-size="353px" font-weight="400"><tspan class="TextPosition" x="4944" y="2493"><tspan fill="rgb(0,0,0)" stroke="none">character varying (200)</tspan></tspan></tspan></text>
       <text class="TextShape"><tspan class="TextParagraph" font-family="Arial, sans-serif" font-size="353px" font-weight="400"><tspan class="TextPosition" x="1491" y="3224"><tspan fill="rgb(0,0,0)" stroke="none">firstname</tspan></tspan></tspan></text>
       <text class="TextShape"><tspan class="TextParagraph" font-family="Arial, sans-serif" font-size="353px" font-weight="400"><tspan class="TextPosition" x="4944" y="3224"><tspan fill="rgb(0,0,0)" stroke="none">character varying (200)</tspan></tspan></tspan></text>
       <text class="TextShape"><tspan class="TextParagraph" font-family="Arial, sans-serif" font-size="353px" font-weight="400"><tspan class="TextPosition" x="1491" y="3955"><tspan fill="rgb(0,0,0)" stroke="none">address</tspan></tspan></tspan></text>
       <text class="TextShape"><tspan class="TextParagraph" font-family="Arial, sans-serif" font-size="353px" font-weight="400"><tspan class="TextPosition" x="4944" y="3955"><tspan fill="rgb(0,0,0)" stroke="none">character varying (300)</tspan></tspan></tspan></text>
       <text class="TextShape"><tspan class="TextParagraph" font-family="Arial, sans-serif" font-size="353px" font-weight="400"><tspan class="TextPosition" x="1491" y="4686"><tspan fill="rgb(0,0,0)" stroke="none">zipcode</tspan></tspan></tspan></text>
       <text class="TextShape"><tspan class="TextParagraph" font-family="Arial, sans-serif" font-size="353px" font-weight="400"><tspan class="TextPosition" x="4944" y="4686"><tspan fill="rgb(0,0,0)" stroke="none">integer</tspan></tspan></tspan></text>
       <text class="TextShape"><tspan class="TextParagraph" font-family="Arial, sans-serif" font-size="353px" font-weight="400"><tspan class="TextPosition" x="1491" y="5417"><tspan fill="rgb(0,0,0)" stroke="none">telephone</tspan></tspan></tspan></text>
       <text class="TextShape"><tspan class="TextParagraph" font-family="Arial, sans-serif" font-size="353px" font-weight="400"><tspan class="TextPosition" x="4944" y="5417"><tspan fill="rgb(0,0,0)" stroke="none">character varying (20)</tspan></tspan></tspan></text>
       <text class="TextShape"><tspan class="TextParagraph" font-family="Arial, sans-serif" font-size="353px" font-weight="400"><tspan class="TextPosition" x="1491" y="6148"><tspan fill="rgb(0,0,0)" stroke="none">recommendedby</tspan></tspan></tspan></text>
       <text class="TextShape"><tspan class="TextParagraph" font-family="Arial, sans-serif" font-size="353px" font-weight="400"><tspan class="TextPosition" x="4944" y="6148"><tspan fill="rgb(0,0,0)" stroke="none">integer</tspan></tspan></tspan></text>
       <text class="TextShape"><tspan class="TextParagraph" font-family="Arial, sans-serif" font-size="353px" font-weight="400"><tspan class="TextPosition" x="1491" y="6879"><tspan fill="rgb(0,0,0)" stroke="none">joindate</tspan></tspan></tspan></text>
       <text class="TextShape"><tspan class="TextParagraph" font-family="Arial, sans-serif" font-size="353px" font-weight="400"><tspan class="TextPosition" x="4944" y="6879"><tspan fill="rgb(0,0,0)" stroke="none">timestamp</tspan></tspan></tspan></text>
       <path fill="none" stroke="rgb(0,0,0)" d="M 1241,1314 L 1241,2045"/>
       <path fill="none" stroke="rgb(0,0,0)" d="M 4694,1314 L 4694,2045"/>
       <path fill="none" stroke="rgb(0,0,0)" d="M 1241,1314 L 4694,1314"/>
       <path fill="none" stroke="rgb(0,0,0)" d="M 4694,1314 L 4694,2045"/>
       <path fill="none" stroke="rgb(0,0,0)" d="M 9600,1314 L 9600,2045"/>
       <path fill="none" stroke="rgb(0,0,0)" d="M 4694,1314 L 9600,1314"/>
       <path fill="none" stroke="rgb(0,0,0)" d="M 1241,2045 L 1241,2776"/>
       <path fill="none" stroke="rgb(0,0,0)" d="M 4694,2045 L 4694,2776"/>
       <path fill="none" stroke="rgb(0,0,0)" d="M 1241,2045 L 4694,2045"/>
       <path fill="none" stroke="rgb(0,0,0)" d="M 4694,2045 L 4694,2776"/>
       <path fill="none" stroke="rgb(0,0,0)" d="M 9600,2045 L 9600,2776"/>
       <path fill="none" stroke="rgb(0,0,0)" d="M 4694,2045 L 9600,2045"/>
       <path fill="none" stroke="rgb(0,0,0)" d="M 1241,2776 L 1241,3507"/>
       <path fill="none" stroke="rgb(0,0,0)" d="M 4694,2776 L 4694,3507"/>
       <path fill="none" stroke="rgb(0,0,0)" d="M 1241,2776 L 4694,2776"/>
       <path fill="none" stroke="rgb(0,0,0)" d="M 4694,2776 L 4694,3507"/>
       <path fill="none" stroke="rgb(0,0,0)" d="M 9600,2776 L 9600,3507"/>
       <path fill="none" stroke="rgb(0,0,0)" d="M 4694,2776 L 9600,2776"/>
       <path fill="none" stroke="rgb(0,0,0)" d="M 1241,3507 L 1241,4238"/>
       <path fill="none" stroke="rgb(0,0,0)" d="M 4694,3507 L 4694,4238"/>
       <path fill="none" stroke="rgb(0,0,0)" d="M 1241,3507 L 4694,3507"/>
       <path fill="none" stroke="rgb(0,0,0)" d="M 4694,3507 L 4694,4238"/>
       <path fill="none" stroke="rgb(0,0,0)" d="M 9600,3507 L 9600,4238"/>
       <path fill="none" stroke="rgb(0,0,0)" d="M 4694,3507 L 9600,3507"/>
       <path fill="none" stroke="rgb(0,0,0)" d="M 1241,4238 L 1241,4969"/>
       <path fill="none" stroke="rgb(0,0,0)" d="M 4694,4238 L 4694,4969"/>
       <path fill="none" stroke="rgb(0,0,0)" d="M 1241,4238 L 4694,4238"/>
       <path fill="none" stroke="rgb(0,0,0)" d="M 4694,4238 L 4694,4969"/>
       <path fill="none" stroke="rgb(0,0,0)" d="M 9600,4238 L 9600,4969"/>
       <path fill="none" stroke="rgb(0,0,0)" d="M 4694,4238 L 9600,4238"/>
       <path fill="none" stroke="rgb(0,0,0)" d="M 1241,4969 L 1241,5700"/>
       <path fill="none" stroke="rgb(0,0,0)" d="M 4694,4969 L 4694,5700"/>
       <path fill="none" stroke="rgb(0,0,0)" d="M 1241,4969 L 4694,4969"/>
       <path fill="none" stroke="rgb(0,0,0)" d="M 4694,4969 L 4694,5700"/>
       <path fill="none" stroke="rgb(0,0,0)" d="M 9600,4969 L 9600,5700"/>
       <path fill="none" stroke="rgb(0,0,0)" d="M 4694,4969 L 9600,4969"/>
       <path fill="none" stroke="rgb(0,0,0)" d="M 1241,5700 L 1241,6431"/>
       <path fill="none" stroke="rgb(0,0,0)" d="M 4694,5700 L 4694,6431"/>
       <path fill="none" stroke="rgb(0,0,0)" d="M 1241,5700 L 4694,5700"/>
       <path fill="none" stroke="rgb(0,0,0)" d="M 4694,5700 L 4694,6431"/>
       <path fill="none" stroke="rgb(0,0,0)" d="M 9600,5700 L 9600,6431"/>
       <path fill="none" stroke="rgb(0,0,0)" d="M 4694,5700 L 9600,5700"/>
       <path fill="none" stroke="rgb(0,0,0)" d="M 1241,6431 L 1241,7162"/>
       <path fill="none" stroke="rgb(0,0,0)" d="M 1241,7162 L 4694,7162"/>
       <path fill="none" stroke="rgb(0,0,0)" d="M 4694,6431 L 4694,7162"/>
       <path fill="none" stroke="rgb(0,0,0)" d="M 1241,6431 L 4694,6431"/>
       <path fill="none" stroke="rgb(0,0,0)" d="M 4694,6431 L 4694,7162"/>
       <path fill="none" stroke="rgb(0,0,0)" d="M 4694,7162 L 9600,7162"/>
       <path fill="none" stroke="rgb(0,0,0)" d="M 9600,6431 L 9600,7162"/>
       <path fill="none" stroke="rgb(0,0,0)" d="M 4694,6431 L 9600,6431"/>
      </g>
     </g>
     <g class="com.sun.star.drawing.TextShape">
      <g id="id5">
       <text class="TextShape"><tspan class="TextParagraph" font-family="Arial, sans-serif" font-size="635px" font-weight="400"><tspan class="TextPosition" x="4120" y="901"><tspan fill="rgb(0,0,0)" stroke="none">cd.members</tspan></tspan></tspan></text>
      </g>
     </g>
     <g class="com.sun.star.drawing.TableShape">
      <g>
       <path fill="rgb(255,255,255)" stroke="none" d="M 12541,2015 L 16474,2015 16474,2746 12541,2746 12541,2015 Z"/>
       <text class="TextShape"><tspan class="TextParagraph" font-family="Arial, sans-serif" font-size="353px" font-weight="400"><tspan class="TextPosition" x="12791" y="2463"><tspan fill="rgb(0,0,0)" stroke="none">facid</tspan></tspan></tspan></text>
       <path fill="rgb(255,255,255)" stroke="none" d="M 16474,2015 L 21500,2015 21500,2746 16474,2746 16474,2015 Z"/>
       <text class="TextShape"><tspan class="TextParagraph" font-family="Arial, sans-serif" font-size="353px" font-weight="400"><tspan class="TextPosition" x="16724" y="2463"><tspan fill="rgb(0,0,0)" stroke="none">integer</tspan></tspan></tspan></text>
       <path fill="rgb(255,255,255)" stroke="none" d="M 12541,2746 L 16474,2746 16474,3477 12541,3477 12541,2746 Z"/>
       <text class="TextShape"><tspan class="TextParagraph" font-family="Arial, sans-serif" font-size="353px" font-weight="400"><tspan class="TextPosition" x="12791" y="3194"><tspan fill="rgb(0,0,0)" stroke="none">name</tspan></tspan></tspan></text>
       <path fill="rgb(255,255,255)" stroke="none" d="M 16474,2746 L 21500,2746 21500,3477 16474,3477 16474,2746 Z"/>
       <text class="TextShape"><tspan class="TextParagraph" font-family="Arial, sans-serif" font-size="353px" font-weight="400"><tspan class="TextPosition" x="16724" y="3194"><tspan fill="rgb(0,0,0)" stroke="none">character varying (100)</tspan></tspan></tspan></text>
       <path fill="rgb(255,255,255)" stroke="none" d="M 12541,3477 L 16474,3477 16474,4208 12541,4208 12541,3477 Z"/>
       <text class="TextShape"><tspan class="TextParagraph" font-family="Arial, sans-serif" font-size="353px" font-weight="400"><tspan class="TextPosition" x="12791" y="3925"><tspan fill="rgb(0,0,0)" stroke="none">membercost</tspan></tspan></tspan></text>
       <path fill="rgb(255,255,255)" stroke="none" d="M 16474,3477 L 21500,3477 21500,4208 16474,4208 16474,3477 Z"/>
       <text class="TextShape"><tspan class="TextParagraph" font-family="Arial, sans-serif" font-size="353px" font-weight="400"><tspan class="TextPosition" x="16724" y="3925"><tspan fill="rgb(0,0,0)" stroke="none">numeric</tspan></tspan></tspan></text>
       <path fill="rgb(255,255,255)" stroke="none" d="M 12541,4208 L 16474,4208 16474,4939 12541,4939 12541,4208 Z"/>
       <text class="TextShape"><tspan class="TextParagraph" font-family="Arial, sans-serif" font-size="353px" font-weight="400"><tspan class="TextPosition" x="12791" y="4656"><tspan fill="rgb(0,0,0)" stroke="none">guestcost</tspan></tspan></tspan></text>
       <path fill="rgb(255,255,255)" stroke="none" d="M 16474,4208 L 21500,4208 21500,4939 16474,4939 16474,4208 Z"/>
       <text class="TextShape"><tspan class="TextParagraph" font-family="Arial, sans-serif" font-size="353px" font-weight="400"><tspan class="TextPosition" x="16724" y="4656"><tspan fill="rgb(0,0,0)" stroke="none">numeric</tspan></tspan></tspan></text>
       <path fill="rgb(255,255,255)" stroke="none" d="M 12541,4939 L 16474,4939 16474,5670 12541,5670 12541,4939 Z"/>
       <text class="TextShape"><tspan class="TextParagraph" font-family="Arial, sans-serif" font-size="353px" font-weight="400"><tspan class="TextPosition" x="12791" y="5387"><tspan fill="rgb(0,0,0)" stroke="none">initialoutlay</tspan></tspan></tspan></text>
       <path fill="rgb(255,255,255)" stroke="none" d="M 16474,4939 L 21500,4939 21500,5670 16474,5670 16474,4939 Z"/>
       <text class="TextShape"><tspan class="TextParagraph" font-family="Arial, sans-serif" font-size="353px" font-weight="400"><tspan class="TextPosition" x="16724" y="5387"><tspan fill="rgb(0,0,0)" stroke="none">numeric</tspan></tspan></tspan></text>
       <path fill="rgb(255,255,255)" stroke="none" d="M 12541,5670 L 16474,5670 16474,6401 12541,6401 12541,5670 Z"/>
       <text class="TextShape"><tspan class="TextParagraph" font-family="Arial, sans-serif" font-size="353px" font-weight="400"><tspan class="TextPosition" x="12791" y="6118"><tspan fill="rgb(0,0,0)" stroke="none">monthlymaintenance</tspan></tspan></tspan></text>
       <path fill="rgb(255,255,255)" stroke="none" d="M 16474,5670 L 21500,5670 21500,6401 16474,6401 16474,5670 Z"/>
       <text class="TextShape"><tspan class="TextParagraph" font-family="Arial, sans-serif" font-size="353px" font-weight="400"><tspan class="TextPosition" x="16724" y="6118"><tspan fill="rgb(0,0,0)" stroke="none">numeric</tspan></tspan></tspan></text>
       <path fill="none" stroke="rgb(0,0,0)" d="M 12541,2015 L 12541,2746"/>
       <path fill="none" stroke="rgb(0,0,0)" d="M 16474,2015 L 16474,2746"/>
       <path fill="none" stroke="rgb(0,0,0)" d="M 12541,2015 L 16474,2015"/>
       <path fill="none" stroke="rgb(0,0,0)" d="M 16474,2015 L 16474,2746"/>
       <path fill="none" stroke="rgb(0,0,0)" d="M 21500,2015 L 21500,2746"/>
       <path fill="none" stroke="rgb(0,0,0)" d="M 16474,2015 L 21500,2015"/>
       <path fill="none" stroke="rgb(0,0,0)" d="M 12541,2746 L 12541,3477"/>
       <path fill="none" stroke="rgb(0,0,0)" d="M 16474,2746 L 16474,3477"/>
       <path fill="none" stroke="rgb(0,0,0)" d="M 12541,2746 L 16474,2746"/>
       <path fill="none" stroke="rgb(0,0,0)" d="M 16474,2746 L 16474,3477"/>
       <path fill="none" stroke="rgb(0,0,0)" d="M 21500,2746 L 21500,3477"/>
       <path fill="none" stroke="rgb(0,0,0)" d="M 16474,2746 L 21500,2746"/>
       <path fill="none" stroke="rgb(0,0,0)" d="M 12541,3477 L 12541,4208"/>
       <path fill="none" stroke="rgb(0,0,0)" d="M 16474,3477 L 16474,4208"/>
       <path fill="none" stroke="rgb(0,0,0)" d="M 12541,3477 L 16474,3477"/>
       <path fill="none" stroke="rgb(0,0,0)" d="M 16474,3477 L 16474,4208"/>
       <path fill="none" stroke="rgb(0,0,0)" d="M 21500,3477 L 21500,4208"/>
       <path fill="none" stroke="rgb(0,0,0)" d="M 16474,3477 L 21500,3477"/>
       <path fill="none" stroke="rgb(0,0,0)" d="M 12541,4208 L 12541,4939"/>
       <path fill="none" stroke="rgb(0,0,0)" d="M 16474,4208 L 16474,4939"/>
       <path fill="none" stroke="rgb(0,0,0)" d="M 12541,4208 L 16474,4208"/>
       <path fill="none" stroke="rgb(0,0,0)" d="M 16474,4208 L 16474,4939"/>
       <path fill="none" stroke="rgb(0,0,0)" d="M 21500,4208 L 21500,4939"/>
       <path fill="none" stroke="rgb(0,0,0)" d="M 16474,4208 L 21500,4208"/>
       <path fill="none" stroke="rgb(0,0,0)" d="M 12541,4939 L 12541,5670"/>
       <path fill="none" stroke="rgb(0,0,0)" d="M 16474,4939 L 16474,5670"/>
       <path fill="none" stroke="rgb(0,0,0)" d="M 12541,4939 L 16474,4939"/>
       <path fill="none" stroke="rgb(0,0,0)" d="M 16474,4939 L 16474,5670"/>
       <path fill="none" stroke="rgb(0,0,0)" d="M 21500,4939 L 21500,5670"/>
       <path fill="none" stroke="rgb(0,0,0)" d="M 16474,4939 L 21500,4939"/>
       <path fill="none" stroke="rgb(0,0,0)" d="M 12541,5670 L 12541,6401"/>
       <path fill="none" stroke="rgb(0,0,0)" d="M 12541,6401 L 16474,6401"/>
       <path fill="none" stroke="rgb(0,0,0)" d="M 16474,5670 L 16474,6401"/>
       <path fill="none" stroke="rgb(0,0,0)" d="M 12541,5670 L 16474,5670"/>
       <path fill="none" stroke="rgb(0,0,0)" d="M 16474,5670 L 16474,6401"/>
       <path fill="none" stroke="rgb(0,0,0)" d="M 16474,6401 L 21500,6401"/>
       <path fill="none" stroke="rgb(0,0,0)" d="M 21500,5670 L 21500,6401"/>
       <path fill="none" stroke="rgb(0,0,0)" d="M 16474,5670 L 21500,5670"/>
      </g>
     </g>
     <g class="com.sun.star.drawing.TextShape">
      <g id="id6">
       <text class="TextShape"><tspan class="TextParagraph" font-family="Arial, sans-serif" font-size="635px" font-weight="400"><tspan class="TextPosition" x="15420" y="1602"><tspan fill="rgb(0,0,0)" stroke="none">cd.facilities</tspan></tspan></tspan></text>
      </g>
     </g>
     <g class="com.sun.star.drawing.TableShape">
      <g>
       <path fill="rgb(255,255,255)" stroke="none" d="M 6741,9815 L 10194,9815 10194,10546 6741,10546 6741,9815 Z"/>
       <text class="TextShape"><tspan class="TextParagraph" font-family="Arial, sans-serif" font-size="353px" font-weight="400"><tspan class="TextPosition" x="6991" y="10263"><tspan fill="rgb(0,0,0)" stroke="none">bookid</tspan></tspan></tspan></text>
       <path fill="rgb(255,255,255)" stroke="none" d="M 10194,9815 L 15100,9815 15100,10546 10194,10546 10194,9815 Z"/>
       <text class="TextShape"><tspan class="TextParagraph" font-family="Arial, sans-serif" font-size="353px" font-weight="400"><tspan class="TextPosition" x="10444" y="10263"><tspan fill="rgb(0,0,0)" stroke="none">integer</tspan></tspan></tspan></text>
       <path fill="rgb(255,255,255)" stroke="none" d="M 6741,10546 L 10194,10546 10194,11277 6741,11277 6741,10546 Z"/>
       <text class="TextShape"><tspan class="TextParagraph" font-family="Arial, sans-serif" font-size="353px" font-weight="400"><tspan class="TextPosition" x="6991" y="10994"><tspan fill="rgb(0,0,0)" stroke="none">facid</tspan></tspan></tspan></text>
       <path fill="rgb(255,255,255)" stroke="none" d="M 10194,10546 L 15100,10546 15100,11277 10194,11277 10194,10546 Z"/>
       <text class="TextShape"><tspan class="TextParagraph" font-family="Arial, sans-serif" font-size="353px" font-weight="400"><tspan class="TextPosition" x="10444" y="10994"><tspan fill="rgb(0,0,0)" stroke="none">integer</tspan></tspan></tspan></text>
       <path fill="rgb(255,255,255)" stroke="none" d="M 6741,11277 L 10194,11277 10194,12008 6741,12008 6741,11277 Z"/>
       <text class="TextShape"><tspan class="TextParagraph" font-family="Arial, sans-serif" font-size="353px" font-weight="400"><tspan class="TextPosition" x="6991" y="11725"><tspan fill="rgb(0,0,0)" stroke="none">memid</tspan></tspan></tspan></text>
       <path fill="rgb(255,255,255)" stroke="none" d="M 10194,11277 L 15100,11277 15100,12008 10194,12008 10194,11277 Z"/>
       <text class="TextShape"><tspan class="TextParagraph" font-family="Arial, sans-serif" font-size="353px" font-weight="400"><tspan class="TextPosition" x="10444" y="11725"><tspan fill="rgb(0,0,0)" stroke="none">integer</tspan></tspan></tspan></text>
       <path fill="rgb(255,255,255)" stroke="none" d="M 6741,12008 L 10194,12008 10194,12739 6741,12739 6741,12008 Z"/>
       <text class="TextShape"><tspan class="TextParagraph" font-family="Arial, sans-serif" font-size="353px" font-weight="400"><tspan class="TextPosition" x="6991" y="12456"><tspan fill="rgb(0,0,0)" stroke="none">starttime</tspan></tspan></tspan></text>
       <path fill="rgb(255,255,255)" stroke="none" d="M 10194,12008 L 15100,12008 15100,12739 10194,12739 10194,12008 Z"/>
       <text class="TextShape"><tspan class="TextParagraph" font-family="Arial, sans-serif" font-size="353px" font-weight="400"><tspan class="TextPosition" x="10444" y="12456"><tspan fill="rgb(0,0,0)" stroke="none">timestamp</tspan></tspan></tspan></text>
       <path fill="rgb(255,255,255)" stroke="none" d="M 6741,12739 L 10194,12739 10194,13470 6741,13470 6741,12739 Z"/>
       <text class="TextShape"><tspan class="TextParagraph" font-family="Arial, sans-serif" font-size="353px" font-weight="400"><tspan class="TextPosition" x="6991" y="13187"><tspan fill="rgb(0,0,0)" stroke="none">slots</tspan></tspan></tspan></text>
       <path fill="rgb(255,255,255)" stroke="none" d="M 10194,12739 L 15100,12739 15100,13470 10194,13470 10194,12739 Z"/>
       <text class="TextShape"><tspan class="TextParagraph" font-family="Arial, sans-serif" font-size="353px" font-weight="400"><tspan class="TextPosition" x="10444" y="13187"><tspan fill="rgb(0,0,0)" stroke="none">integer</tspan></tspan></tspan></text>
       <path fill="none" stroke="rgb(0,0,0)" d="M 6741,9815 L 6741,10546"/>
       <path fill="none" stroke="rgb(0,0,0)" d="M 10194,9815 L 10194,10546"/>
       <path fill="none" stroke="rgb(0,0,0)" d="M 6741,9815 L 10194,9815"/>
       <path fill="none" stroke="rgb(0,0,0)" d="M 10194,9815 L 10194,10546"/>
       <path fill="none" stroke="rgb(0,0,0)" d="M 15100,9815 L 15100,10546"/>
       <path fill="none" stroke="rgb(0,0,0)" d="M 10194,9815 L 15100,9815"/>
       <path fill="none" stroke="rgb(0,0,0)" d="M 6741,10546 L 6741,11277"/>
       <path fill="none" stroke="rgb(0,0,0)" d="M 10194,10546 L 10194,11277"/>
       <path fill="none" stroke="rgb(0,0,0)" d="M 6741,10546 L 10194,10546"/>
       <path fill="none" stroke="rgb(0,0,0)" d="M 10194,10546 L 10194,11277"/>
       <path fill="none" stroke="rgb(0,0,0)" d="M 15100,10546 L 15100,11277"/>
       <path fill="none" stroke="rgb(0,0,0)" d="M 10194,10546 L 15100,10546"/>
       <path fill="none" stroke="rgb(0,0,0)" d="M 6741,11277 L 6741,12008"/>
       <path fill="none" stroke="rgb(0,0,0)" d="M 10194,11277 L 10194,12008"/>
       <path fill="none" stroke="rgb(0,0,0)" d="M 6741,11277 L 10194,11277"/>
       <path fill="none" stroke="rgb(0,0,0)" d="M 10194,11277 L 10194,12008"/>
       <path fill="none" stroke="rgb(0,0,0)" d="M 15100,11277 L 15100,12008"/>
       <path fill="none" stroke="rgb(0,0,0)" d="M 10194,11277 L 15100,11277"/>
       <path fill="none" stroke="rgb(0,0,0)" d="M 6741,12008 L 6741,12739"/>
       <path fill="none" stroke="rgb(0,0,0)" d="M 10194,12008 L 10194,12739"/>
       <path fill="none" stroke="rgb(0,0,0)" d="M 6741,12008 L 10194,12008"/>
       <path fill="none" stroke="rgb(0,0,0)" d="M 10194,12008 L 10194,12739"/>
       <path fill="none" stroke="rgb(0,0,0)" d="M 15100,12008 L 15100,12739"/>
       <path fill="none" stroke="rgb(0,0,0)" d="M 10194,12008 L 15100,12008"/>
       <path fill="none" stroke="rgb(0,0,0)" d="M 6741,12739 L 6741,13470"/>
       <path fill="none" stroke="rgb(0,0,0)" d="M 6741,13470 L 10194,13470"/>
       <path fill="none" stroke="rgb(0,0,0)" d="M 10194,12739 L 10194,13470"/>
       <path fill="none" stroke="rgb(0,0,0)" d="M 6741,12739 L 10194,12739"/>
       <path fill="none" stroke="rgb(0,0,0)" d="M 10194,12739 L 10194,13470"/>
       <path fill="none" stroke="rgb(0,0,0)" d="M 10194,13470 L 15100,13470"/>
       <path fill="none" stroke="rgb(0,0,0)" d="M 15100,12739 L 15100,13470"/>
       <path fill="none" stroke="rgb(0,0,0)" d="M 10194,12739 L 15100,12739"/>
      </g>
     </g>
     <g class="com.sun.star.drawing.TextShape">
      <g id="id7">
       <text class="TextShape"><tspan class="TextParagraph" font-family="Arial, sans-serif" font-size="635px" font-weight="400"><tspan class="TextPosition" x="9155" y="9402"><tspan fill="rgb(0,0,0)" stroke="none">cd.bookings</tspan></tspan></tspan></text>
      </g>
     </g>
     <g class="com.sun.star.drawing.LineShape">
      <g id="id8">
       <path fill="none" stroke="rgb(0,0,0)" d="M 400,1700 L 400,11600"/>
      </g>
     </g>
     <g class="com.sun.star.drawing.LineShape">
      <g id="id9">
       <path fill="none" stroke="rgb(0,0,0)" d="M 400,1700 L 1054,1700"/>
       <path fill="rgb(0,0,0)" stroke="none" d="M 1200,1700 L 1040,1600 1040,1800 1200,1700 Z"/>
      </g>
     </g>
     <g class="com.sun.star.drawing.LineShape">
      <g id="id10">
       <path fill="none" stroke="rgb(0,0,0)" d="M 5500,8100 L 5500,10900"/>
      </g>
     </g>
     <g class="com.sun.star.drawing.LineShape">
      <g id="id11">
       <path fill="none" stroke="rgb(0,0,0)" d="M 5500,8100 L 11800,8100"/>
      </g>
     </g>
     <g class="com.sun.star.drawing.LineShape">
      <g id="id12">
       <path fill="none" stroke="rgb(0,0,0)" d="M 11800,2400 L 11800,8100"/>
      </g>
     </g>
     <g class="com.sun.star.drawing.LineShape">
      <g id="id13">
       <path fill="none" stroke="rgb(0,0,0)" d="M 11800,2400 L 12454,2400"/>
       <path fill="rgb(0,0,0)" stroke="none" d="M 12600,2400 L 12440,2300 12440,2500 12600,2400 Z"/>
      </g>
     </g>
     <g class="com.sun.star.drawing.LineShape">
      <g id="id14">
       <path fill="none" stroke="rgb(0,0,0)" d="M 9600,6100 L 10300,6100"/>
      </g>
     </g>
     <g class="com.sun.star.drawing.LineShape">
      <g id="id15">
       <path fill="none" stroke="rgb(0,0,0)" d="M 10300,1700 L 10300,6100"/>
      </g>
     </g>
     <g class="com.sun.star.drawing.LineShape">
      <g id="id16">
       <path fill="none" stroke="rgb(0,0,0)" d="M 9746,1700 L 10300,1700"/>
       <path fill="rgb(0,0,0)" stroke="none" d="M 9600,1700 L 9760,1800 9760,1600 9600,1700 Z"/>
      </g>
     </g>
    </g>
   </g>
  </g>
 </g>
</svg>